<svg width="848" height="688" viewBox="0 0 848 688" fill="none" xmlns="http://www.w3.org/2000/svg">
<path d="M322.924 129.98C334.175 216.949 419.718 216.47 451.618 217.835H597.113H723.821C734.381 217.835 743.122 226.045 743.782 236.584L756.304 436.418L768.668 633.749C769.39 645.264 760.245 655 748.708 655H70.413C59.7575 655 50.973 646.646 50.4382 636.004L25.0557 131.004C24.4814 119.578 33.5905 110 45.0305 110H172.849H301.697C312.743 110 321.507 119.026 322.924 129.98Z" fill="#191A1F" stroke="#353741" stroke-width="5"/>
<path d="M99.8025 296.509C101.041 287.895 108.422 281.5 117.124 281.5H800.918C811.574 281.5 819.757 290.943 818.24 301.491L769.198 642.491C767.959 651.105 760.578 657.5 751.876 657.5H68.0821C57.4259 657.5 49.2434 648.057 50.7604 637.509L99.8025 296.509Z" fill="#191A1F" stroke="#353741" stroke-width="5"/>
<path d="M504.165 329.381C504.116 330.55 504.306 331.716 504.724 332.808C505.142 333.901 505.779 334.896 506.595 335.734C507.412 336.571 508.392 337.232 509.474 337.677C510.556 338.121 511.717 338.34 512.886 338.319H542.741C547.735 338.319 551.716 334.23 552.367 329.272C555.624 305.533 571.908 288.236 600.931 288.236C625.755 288.236 648.481 300.648 648.481 330.503C648.481 353.482 634.947 364.049 613.56 380.116C589.206 397.811 569.918 418.475 571.293 452.02L571.402 459.873C571.44 462.247 572.41 464.511 574.102 466.177C575.795 467.842 578.074 468.775 580.449 468.775H609.797C612.196 468.775 614.497 467.822 616.194 466.125C617.89 464.429 618.843 462.128 618.843 459.728V455.929C618.843 429.946 628.723 422.383 655.393 402.154C677.431 385.399 700.41 366.799 700.41 327.752C700.41 273.073 654.235 246.656 603.681 246.656C557.831 246.656 507.603 268.007 504.165 329.381ZM560.509 537.929C560.509 557.217 575.889 571.475 597.059 571.475C619.097 571.475 634.259 557.217 634.259 537.929C634.259 517.954 619.061 503.913 597.022 503.913C575.889 503.913 560.509 517.954 560.509 537.929Z" fill="#003652"/>
<circle cx="135" cy="220" r="12" fill="#003652"/>
<circle cx="131.5" cy="75.5" r="8.5" fill="#003652"/>
<circle cx="385" cy="43" r="12.5" stroke="#003652" stroke-width="5"/>
<rect x="280" y="201.284" width="40" height="10" rx="5" transform="rotate(-45 280 201.284)" fill="#003652"/>
<rect x="287.071" y="173" width="40" height="10" rx="5" transform="rotate(45 287.071 173)" fill="#003652"/>
</svg>
