<svg width="370" height="100" viewBox="0 0 370 100" fill="none" xmlns="http://www.w3.org/2000/svg">
<g clip-path="url(#clip0_6_2)">
<rect width="370" height="100" fill="#191A1F"/>
<path d="M248.001 20.8506C247.709 21.2143 247.53 21.6587 247.487 22.127C247.444 22.5952 247.539 23.0658 247.761 23.4783C249.496 26.7287 250.402 30.3728 250.395 34.0747C250.395 46.3892 240.561 56.3608 228.441 56.3608C226.857 56.3588 225.324 56.1955 223.842 55.8708C223.389 55.7718 222.917 55.8107 222.485 55.9828C222.053 56.1548 221.68 56.4523 221.413 56.8386C221.129 57.2406 220.984 57.7273 221.001 58.2222C221.018 58.7172 221.196 59.1925 221.506 59.5735C223.859 62.5239 226.827 64.9011 230.194 66.5318C233.561 68.1626 237.242 69.0058 240.969 69C254.798 69 266 57.6257 266 43.6115C266 33.0641 259.658 24.0173 250.629 20.183C250.179 19.9879 249.679 19.9475 249.205 20.068C248.731 20.1884 248.308 20.4632 248.001 20.8506Z" fill="#272830"/>
<path d="M226.58 37.9734C226.411 38.0658 226.219 37.9039 226.253 37.6971L226.616 35.4899L225.075 33.9238C224.931 33.7773 225.006 33.5094 225.199 33.4805L227.342 33.1557L228.297 31.1365C228.383 30.9545 228.617 30.9545 228.703 31.1365L229.658 33.1557L231.801 33.4805C231.994 33.5094 232.069 33.7773 231.925 33.9238L230.384 35.4899L230.747 37.6971C230.781 37.9039 230.589 38.0658 230.42 37.9734L228.499 36.9206L226.58 37.9734Z" fill="#272830"/>
<path d="M86.5797 24.9734C86.4108 25.0658 86.2192 24.9039 86.2533 24.6971L86.6164 22.4899L85.0751 20.9238C84.9312 20.7773 85.006 20.5094 85.1989 20.4805L87.3418 20.1557L88.2973 18.1365C88.3835 17.9545 88.6167 17.9545 88.7028 18.1365L89.6583 20.1557L91.8012 20.4805C91.9941 20.5094 92.069 20.7773 91.9246 20.9238L90.3837 22.4899L90.7468 24.6971C90.781 24.9039 90.5893 25.0658 90.4205 24.9734L88.4994 23.9206L86.5797 24.9734Z" fill="#272830"/>
<path d="M287.903 58.9848C287.806 59.0376 287.697 58.9451 287.716 58.8269L287.924 57.5656L287.043 56.6707C286.961 56.587 287.003 56.434 287.114 56.4174L288.338 56.2318L288.884 55.078C288.933 54.974 289.067 54.974 289.116 55.078L289.662 56.2318L290.886 56.4174C290.997 56.434 291.039 56.587 290.957 56.6707L290.076 57.5656L290.284 58.8269C290.303 58.9451 290.194 59.0376 290.097 58.9848L289 58.3832L287.903 58.9848Z" fill="#272830"/>
<path d="M165.482 17.9582C165.217 18.1034 164.916 17.8489 164.969 17.5241L165.54 14.0555L163.118 11.5945C162.892 11.3643 163.009 10.9434 163.313 10.8979L166.68 10.3875L168.181 7.21449C168.317 6.9285 168.683 6.9285 168.819 7.21449L170.32 10.3875L173.688 10.8979C173.991 10.9434 174.108 11.3643 173.881 11.5945L171.46 14.0555L172.031 17.5241C172.084 17.8489 171.783 18.1034 171.518 17.9582L168.499 16.3039L165.482 17.9582Z" fill="#272830"/>
<path d="M299.159 25.9468C298.822 26.1316 298.438 25.8077 298.507 25.3943L299.233 20.9798L296.15 17.8476C295.862 17.5545 296.012 17.0188 296.398 16.961L300.684 16.3114L302.595 12.273C302.767 11.909 303.233 11.909 303.406 12.273L305.317 16.3114L309.602 16.961C309.988 17.0188 310.138 17.5545 309.849 17.8476L306.767 20.9798L307.494 25.3943C307.562 25.8077 307.179 26.1316 306.841 25.9468L302.999 23.8413L299.159 25.9468Z" fill="#272830"/>
<path d="M129.805 48.9696C129.612 49.0752 129.393 48.8901 129.432 48.6539L129.847 46.1313L128.086 44.3415C127.921 44.174 128.007 43.8679 128.227 43.8348L130.676 43.4637L131.768 41.156C131.867 40.948 132.133 40.948 132.232 41.156L133.324 43.4637L135.773 43.8348C135.993 43.8679 136.079 44.174 135.914 44.3415L134.153 46.1313L134.568 48.6539C134.607 48.8901 134.388 49.0752 134.195 48.9696L131.999 47.7664L129.805 48.9696Z" fill="#272830"/>
<path d="M349.257 44.962C349.015 45.094 348.742 44.8627 348.79 44.5673L349.309 41.4141L347.107 39.1769C346.902 38.9675 347.009 38.5849 347.284 38.5435L350.345 38.0796L351.71 35.195C351.834 34.935 352.167 34.935 352.29 35.195L353.655 38.0796L356.716 38.5435C356.992 38.5849 357.099 38.9675 356.892 39.1769L354.691 41.4141L355.21 44.5673C355.259 44.8627 354.985 45.094 354.744 44.962L351.999 43.4581L349.257 44.962Z" fill="#272830"/>
<path d="M57.708 57.9544C57.4185 58.1128 57.09 57.8352 57.1485 57.4808L57.771 53.6969L55.1287 51.0122C54.882 50.761 55.0102 50.3019 55.341 50.2523L59.0145 49.6955L60.6525 46.234C60.8002 45.922 61.2 45.922 61.3477 46.234L62.9857 49.6955L66.6592 50.2523C66.99 50.3019 67.1182 50.761 66.8707 51.0122L64.2292 53.6969L64.8517 57.4808C64.9102 57.8352 64.5817 58.1128 64.2922 57.9544L60.999 56.1497L57.708 57.9544Z" fill="#272830"/>
<path d="M293 76.8121C320.5 66.0247 351.5 62.5247 373.5 114.812H-14V56.8121C-7.5 54.4788 14.1 56.1121 48.5 81.3121C54.8333 69.9788 86.5 47.5247 123.5 76.8121C134.5 60.6455 174 29.5247 218.5 66.0247C245.5 52.5 279 61 293 76.8121Z" fill="#272830" fill-opacity="0.5"/>
<path d="M66.5 85.8121C39 75.0247 8 71.5247 -14 123.812H373.5V65.8121C367 63.4788 345.4 65.1121 311 90.3121C304.667 78.9788 273 56.5247 236 85.8121C225 69.6455 185.5 38.5247 141 75.0247C118 48.5247 81.5 56.0247 66.5 85.8121Z" fill="#272830"/>
</g>
<defs>
<clipPath id="clip0_6_2">
<rect width="370" height="100" fill="white"/>
</clipPath>
</defs>
</svg>
