<svg width="799" height="632" viewBox="0 0 799 632" fill="none" xmlns="http://www.w3.org/2000/svg">
<path d="M300.894 101.98C312.145 188.949 397.688 188.47 429.588 189.835H575.083H701.791C712.351 189.835 721.092 198.045 721.752 208.584L734.274 408.418L746.638 605.749C747.36 617.264 738.215 627 726.678 627H48.383C37.7275 627 28.943 618.646 28.4082 608.004L3.02574 103.004C2.45144 91.578 11.5605 82 23.0005 82H150.819H279.667C290.713 82 299.477 91.026 300.894 101.98Z" fill="white" stroke="#BDBDBD" stroke-width="5"/>
<path d="M77.7725 268.509C79.011 259.895 86.392 253.5 95.094 253.5H778.888C789.544 253.5 797.727 262.943 796.21 273.491L747.168 614.491C745.929 623.105 738.548 629.5 729.846 629.5H46.0522C35.396 629.5 27.2134 620.057 28.7304 609.509L77.7725 268.509Z" fill="white" stroke="#BDBDBD" stroke-width="5"/>
<path d="M490.856 307.819H490.834L490.812 307.82C489.983 307.834 489.161 307.679 488.394 307.364C487.628 307.049 486.934 306.581 486.355 305.988C485.776 305.394 485.325 304.689 485.029 303.915C484.734 303.146 484.6 302.325 484.632 301.502C486.313 271.585 499.341 251.619 517.416 239.056C535.594 226.422 559.066 221.156 581.651 221.156C606.531 221.156 630.144 227.662 647.47 240.697C664.716 253.672 675.88 273.212 675.88 299.752C675.88 337.494 653.857 355.433 631.85 372.164L631.743 372.245C618.573 382.234 609.136 389.392 603.094 397.375C596.873 405.593 594.313 414.559 594.313 427.929V431.728C594.313 433.465 593.624 435.13 592.396 436.358C591.168 437.585 589.503 438.275 587.767 438.275H558.419C556.701 438.275 555.05 437.6 553.826 436.395C552.602 435.19 551.9 433.553 551.871 431.837C551.871 431.835 551.871 431.833 551.871 431.833L551.763 423.986L551.762 423.952L551.761 423.918C550.439 391.655 568.854 371.682 593 354.138L593.016 354.127L593.032 354.115C603.66 346.13 612.667 339.282 618.958 331.469C625.361 323.517 628.951 314.581 628.951 302.503C628.951 286.863 622.959 275.544 613.52 268.201C604.172 260.927 591.687 257.736 578.901 257.736C563.875 257.736 551.921 262.225 543.285 269.993C534.663 277.749 529.554 288.589 527.86 300.933L527.859 300.94L527.858 300.947C527.342 304.876 524.244 307.819 520.711 307.819H490.856ZM575.029 540.975C555.041 540.975 540.979 527.646 540.979 509.929C540.979 491.512 555.055 478.413 574.992 478.413C585.48 478.413 594.158 481.748 600.186 487.274C606.199 492.784 609.729 500.608 609.729 509.929C609.729 527.627 595.905 540.975 575.029 540.975Z" fill="#C2EBFF"/>
<path d="M112.97 204C119.597 204 124.97 198.627 124.97 192C124.97 185.373 119.597 180 112.97 180C106.343 180 100.97 185.373 100.97 192C100.97 198.627 106.343 204 112.97 204Z" fill="#C2EBFF"/>
<path d="M109.47 56C114.164 56 117.97 52.1944 117.97 47.5C117.97 42.8056 114.164 39 109.47 39C104.776 39 100.97 42.8056 100.97 47.5C100.97 52.1944 104.776 56 109.47 56Z" fill="#C2EBFF"/>
<path d="M375.47 15C375.47 21.9036 369.874 27.5 362.97 27.5C356.066 27.5 350.47 21.9036 350.47 15C350.47 8.09644 356.066 2.5 362.97 2.5C369.874 2.5 375.47 8.09644 375.47 15Z" stroke="#C2EBFF" stroke-width="5"/>
<path d="M282.719 148.535L261.506 169.749C259.553 171.701 259.553 174.867 261.506 176.82C263.458 178.772 266.624 178.772 268.577 176.82L289.79 155.606C291.742 153.654 291.742 150.488 289.79 148.535C287.837 146.583 284.671 146.583 282.719 148.535Z" fill="#C2EBFF"/>
<path d="M289.79 169.749L268.577 148.536C266.624 146.583 263.458 146.583 261.506 148.536C259.553 150.488 259.553 153.654 261.506 155.607L282.719 176.82C284.671 178.772 287.837 178.772 289.79 176.82C291.742 174.867 291.742 171.701 289.79 169.749Z" fill="#C2EBFF"/>
</svg>
