<svg width="845" height="921" viewBox="0 0 845 921" fill="none" xmlns="http://www.w3.org/2000/svg">
<rect width="845" height="921" fill="white"/>
<path d="M168.522 166C168.522 156.335 176.357 148.5 186.022 148.5H336.022H416.022H496.022H646.022C655.687 148.5 663.522 156.335 663.522 166V796C663.522 805.665 655.687 813.5 646.022 813.5H186.022C176.357 813.5 168.522 805.665 168.522 796V166Z" fill="white" stroke="#BDBDBD" stroke-width="5"/>
<path d="M356.022 118.5C343.596 118.5 333.522 128.574 333.522 141V151C333.522 163.426 343.596 173.5 356.022 173.5H476.022C488.449 173.5 498.522 163.426 498.522 151V141C498.522 128.574 488.449 118.5 476.022 118.5H441.522V113.5C441.522 107.425 436.597 102.5 430.522 102.5H416.022H401.522C395.447 102.5 390.522 107.425 390.522 113.5V118.5H356.022Z" fill="white" stroke="#BDBDBD" stroke-width="5"/>
<g filter="url(#filter0_d_16_884)">
<path d="M667.874 733.408C698.617 733.408 723.539 708.469 723.539 677.704C723.539 646.94 698.617 622 667.874 622C637.131 622 612.209 646.94 612.209 677.704C612.209 708.469 637.131 733.408 667.874 733.408Z" fill="#C2EAFF"/>
</g>
<path d="M674.832 663.415L653.652 684.629C651.702 686.581 651.702 689.747 653.652 691.7C655.602 693.652 658.762 693.652 660.712 691.7L681.891 670.487C683.841 668.534 683.841 665.368 681.891 663.415C679.942 661.463 676.781 661.463 674.832 663.415Z" fill="white"/>
<path d="M681.891 684.629L660.712 663.416C658.762 661.463 655.601 661.463 653.652 663.416C651.702 665.368 651.702 668.534 653.652 670.487L674.831 691.7C676.781 693.653 679.942 693.653 681.891 691.7C683.841 689.747 683.841 686.582 681.891 684.629Z" fill="white"/>
<path d="M325.046 292H281.388C278.374 292 275.93 294.445 275.93 297.461V341.151C275.93 344.167 278.374 346.612 281.388 346.612H325.046C328.06 346.612 330.504 344.167 330.504 341.151V297.461C330.504 294.445 328.06 292 325.046 292Z" fill="#EEEFF1"/>
<path d="M558.621 292H341.419C338.405 292 335.961 294.445 335.961 297.461V310.568C335.961 313.584 338.405 316.029 341.419 316.029H558.621C561.635 316.029 564.078 313.584 564.078 310.568V297.461C564.078 294.445 561.635 292 558.621 292Z" fill="#EEEFF1"/>
<path d="M522.602 321.49H341.419C338.405 321.49 335.961 323.936 335.961 326.952V341.151C335.961 344.167 338.405 346.612 341.419 346.612H522.602C525.616 346.612 528.06 344.167 528.06 341.151V326.952C528.06 323.936 525.616 321.49 522.602 321.49Z" fill="#EEEFF1"/>
<path d="M325.046 372.826H281.388C278.374 372.826 275.93 375.271 275.93 378.287V421.977C275.93 424.993 278.374 427.438 281.388 427.438H325.046C328.06 427.438 330.504 424.993 330.504 421.977V378.287C330.504 375.271 328.06 372.826 325.046 372.826Z" fill="#EEEFF1"/>
<path d="M558.621 372.826H341.419C338.405 372.826 335.961 375.271 335.961 378.287V391.394C335.961 394.41 338.405 396.855 341.419 396.855H558.621C561.635 396.855 564.078 394.41 564.078 391.394V378.287C564.078 375.271 561.635 372.826 558.621 372.826Z" fill="#EEEFF1"/>
<path d="M522.602 402.316H341.419C338.405 402.316 335.961 404.761 335.961 407.777V421.977C335.961 424.993 338.405 427.438 341.419 427.438H522.602C525.616 427.438 528.06 424.993 528.06 421.977V407.777C528.06 404.761 525.616 402.316 522.602 402.316Z" fill="#EEEFF1"/>
<path d="M325.046 453.652H281.388C278.374 453.652 275.93 456.097 275.93 459.113V502.802C275.93 505.818 278.374 508.264 281.388 508.264H325.046C328.06 508.264 330.504 505.818 330.504 502.802V459.113C330.504 456.097 328.06 453.652 325.046 453.652Z" fill="#EEEFF1"/>
<path d="M558.621 453.652H341.419C338.405 453.652 335.961 456.097 335.961 459.113V472.22C335.961 475.236 338.405 477.681 341.419 477.681H558.621C561.635 477.681 564.078 475.236 564.078 472.22V459.113C564.078 456.097 561.635 453.652 558.621 453.652Z" fill="#EEEFF1"/>
<path d="M522.602 483.142H341.419C338.405 483.142 335.961 485.587 335.961 488.603V502.802C335.961 505.818 338.405 508.264 341.419 508.264H522.602C525.616 508.264 528.06 505.818 528.06 502.802V488.603C528.06 485.587 525.616 483.142 522.602 483.142Z" fill="#EEEFF1"/>
<path d="M322.864 534.477H279.205C276.191 534.477 273.748 536.922 273.748 539.938V583.628C273.748 586.644 276.191 589.089 279.205 589.089H322.864C325.878 589.089 328.321 586.644 328.321 583.628V539.938C328.321 536.922 325.878 534.477 322.864 534.477Z" fill="#EEEFF1"/>
<path d="M556.438 534.477H339.236C336.222 534.477 333.778 536.922 333.778 539.938V553.045C333.778 556.062 336.222 558.507 339.236 558.507H556.438C559.452 558.507 561.895 556.062 561.895 553.045V539.938C561.895 536.922 559.452 534.477 556.438 534.477Z" fill="#EEEFF1"/>
<path d="M520.419 563.968H339.236C336.222 563.968 333.778 566.413 333.778 569.429V583.628C333.778 586.644 336.222 589.089 339.236 589.089H520.419C523.433 589.089 525.877 586.644 525.877 583.628V569.429C525.877 566.413 523.433 563.968 520.419 563.968Z" fill="#EEEFF1"/>
<path d="M322.864 615.303H279.205C276.191 615.303 273.748 617.748 273.748 620.764V664.454C273.748 667.47 276.191 669.915 279.205 669.915H322.864C325.878 669.915 328.321 667.47 328.321 664.454V620.764C328.321 617.748 325.878 615.303 322.864 615.303Z" fill="#EEEFF1"/>
<path d="M556.438 615.303H339.236C336.222 615.303 333.778 617.748 333.778 620.764V633.871C333.778 636.887 336.222 639.332 339.236 639.332H556.438C559.452 639.332 561.895 636.887 561.895 633.871V620.764C561.895 617.748 559.452 615.303 556.438 615.303Z" fill="#EEEFF1"/>
<path d="M520.419 644.794H339.236C336.222 644.794 333.778 647.239 333.778 650.255V664.454C333.778 667.47 336.222 669.915 339.236 669.915H520.419C523.433 669.915 525.877 667.47 525.877 664.454V650.255C525.877 647.239 523.433 644.794 520.419 644.794Z" fill="#EEEFF1"/>
<path d="M818.87 202.7L802.696 218.9C801.207 220.391 801.207 222.809 802.696 224.3C804.184 225.791 806.598 225.791 808.087 224.3L824.261 208.1C825.75 206.609 825.75 204.191 824.261 202.7C822.772 201.209 820.359 201.209 818.87 202.7Z" fill="#FFC2CC"/>
<path d="M824.261 218.9L808.087 202.7C806.598 201.209 804.184 201.209 802.696 202.7C801.207 204.191 801.207 206.609 802.696 208.1L818.87 224.3C820.359 225.791 822.772 225.791 824.261 224.3C825.75 222.809 825.75 220.391 824.261 218.9Z" fill="#FFC2CC"/>
<path d="M58.8232 749.412L26.4033 781.883C23.4191 784.872 23.4191 789.718 26.4033 792.707C29.3875 795.696 34.2258 795.696 37.21 792.707L69.6299 760.236C72.6141 757.247 72.6141 752.401 69.6299 749.412C66.6457 746.423 61.8074 746.423 58.8232 749.412Z" fill="#FFC2CC"/>
<path d="M69.6299 781.884L37.21 749.412C34.2258 746.423 29.3875 746.423 26.4033 749.412C23.4191 752.401 23.4191 757.247 26.4033 760.236L58.8232 792.708C61.8074 795.696 66.6457 795.696 69.6299 792.708C72.6141 789.719 72.6141 784.873 69.6299 781.884Z" fill="#FFC2CC"/>
<path d="M29.4003 175.207L4.20046 200.447C1.88088 202.77 1.88088 206.537 4.20046 208.86C6.52005 211.183 10.2808 211.183 12.6004 208.86L37.8003 183.62C40.1199 181.297 40.1199 177.53 37.8003 175.207C35.4807 172.883 31.7199 172.883 29.4003 175.207Z" fill="#FFC2CC"/>
<path d="M37.7997 200.447L12.5999 175.207C10.2803 172.884 6.51951 172.884 4.19993 175.207C1.88034 177.53 1.88034 181.297 4.19993 183.62L29.3998 208.86C31.7194 211.183 35.4802 211.183 37.7997 208.86C40.1193 206.537 40.1193 202.77 37.7997 200.447Z" fill="#FFC2CC"/>
<path d="M315.22 13.8094L287.615 13.8094C285.074 13.8094 283.011 15.8692 283.007 18.4101C283.003 20.951 285.06 23.0108 287.601 23.0108H315.205C317.746 23.0108 319.809 20.951 319.813 18.4101C319.817 15.8692 317.761 13.8094 315.22 13.8094Z" fill="#EEEFF1"/>
<path d="M306.01 32.2051L306.01 4.60073C306.01 2.05982 303.951 0.00327214 301.41 0.00730852C298.869 0.0113449 296.809 2.07444 296.809 4.61535L296.809 32.2198C296.809 34.7607 298.869 36.8172 301.41 36.8132C303.951 36.8092 306.01 34.7461 306.01 32.2051Z" fill="#EEEFF1"/>
<path d="M791.22 529.809H763.615C761.074 529.809 759.011 531.869 759.007 534.41C759.003 536.951 761.06 539.011 763.601 539.011H791.205C793.746 539.011 795.809 536.951 795.813 534.41C795.817 531.869 793.761 529.809 791.22 529.809Z" fill="#EEEFF1"/>
<path d="M782.01 548.205L782.01 520.601C782.01 518.06 779.951 516.003 777.41 516.007C774.869 516.011 772.809 518.074 772.809 520.615L772.809 548.22C772.809 550.761 774.869 552.817 777.41 552.813C779.951 552.809 782.01 550.746 782.01 548.205Z" fill="#EEEFF1"/>
<path d="M306.096 887.185H265.746C262.032 887.185 259.017 890.196 259.011 893.91C259.005 897.624 262.011 900.635 265.725 900.635H306.074C309.788 900.635 312.804 897.624 312.81 893.91C312.816 890.196 309.81 887.185 306.096 887.185Z" fill="#EEEFF1"/>
<path d="M292.635 914.074L292.635 873.725C292.635 870.011 289.624 867.005 285.91 867.011C282.196 867.017 279.185 870.032 279.185 873.746L279.185 914.096C279.185 917.81 282.196 920.816 285.91 920.81C289.624 920.804 292.635 917.788 292.635 914.074Z" fill="#EEEFF1"/>
<path d="M85 466C90.5228 466 95 461.523 95 456C95 450.477 90.5228 446 85 446C79.4772 446 75 450.477 75 456C75 461.523 79.4772 466 85 466Z" fill="#C2EAFF"/>
<path d="M842.5 816C842.5 824.56 835.56 831.5 827 831.5C818.44 831.5 811.5 824.56 811.5 816C811.5 807.44 818.44 800.5 827 800.5C835.56 800.5 842.5 807.44 842.5 816Z" stroke="#C2EAFF" stroke-width="5"/>
<defs>
<filter id="filter0_d_16_884" x="608.854" y="618.644" width="118.041" height="118.12" filterUnits="userSpaceOnUse" color-interpolation-filters="sRGB">
<feFlood flood-opacity="0" result="BackgroundImageFix"/>
<feColorMatrix in="SourceAlpha" type="matrix" values="0 0 0 0 0 0 0 0 0 0 0 0 0 0 0 0 0 0 127 0" result="hardAlpha"/>
<feOffset/>
<feGaussianBlur stdDeviation="1.67791"/>
<feColorMatrix type="matrix" values="0 0 0 0 0.278431 0 0 0 0 0.760784 0 0 0 0 1 0 0 0 0.1 0"/>
<feBlend mode="normal" in2="BackgroundImageFix" result="effect1_dropShadow_16_884"/>
<feBlend mode="normal" in="SourceGraphic" in2="effect1_dropShadow_16_884" result="shape"/>
</filter>
</defs>
</svg>
